<?xml version="1.0" encoding="UTF-8"?>
<svg xmlns="http://www.w3.org/2000/svg" version="1.1" viewBox="0 0 11.2 11.2">
  <defs>
    <style>
      .cls-1 {
        fill: #fff;
      }
    </style>
  </defs>
  <!-- Generator: Adobe Illustrator 28.7.1, SVG Export Plug-In . SVG Version: 1.2.0 Build 142)  -->
  <g>
    <g id="Layer_1">
      <path class="cls-1" d="M5.7,11.2c-.9,0-1.7-.1-2.4-.4s-1.3-.6-1.8-1.1c-.5-.5-.9-1.1-1.1-1.7-.3-.7-.4-1.5-.4-2.3s.1-1.6.4-2.3c.3-.7.6-1.3,1.1-1.8.5-.5,1.1-.9,1.8-1.2.7-.3,1.5-.4,2.4-.4s1.6.1,2.3.4c.7.2,1.2.6,1.7,1.1.5.5.8,1,1.1,1.6.2.6.4,1.3.4,2.1,0,.5,0,1-.1,1.4s-.2.8-.4,1.1-.5.6-.8.8-.7.3-1.2.3c-.3,0-.6,0-.8,0-.2,0-.4-.2-.5-.3s-.2-.3-.2-.5h0c0,.2-.2.3-.4.5-.2.1-.4.2-.7.3-.3,0-.6.1-.9,0-.3,0-.7,0-1-.2-.3-.1-.6-.3-.8-.6-.2-.3-.4-.6-.5-1-.1-.4-.2-.8-.2-1.3,0-.5,0-.9.2-1.3.1-.4.3-.7.5-.9.2-.2.5-.4.8-.6s.6-.2.8-.3c.3,0,.6,0,.9,0,.3,0,.5.1.7.2.2.1.3.2.4.3h0v-.5h1.3v4.2c0,.2,0,.3.1.5,0,.1.2.2.3.2s.4,0,.5-.3c.1-.2.2-.4.3-.8,0-.4.1-.8.1-1.4s0-1-.2-1.4-.3-.8-.6-1c-.3-.3-.5-.5-.9-.7-.3-.2-.7-.3-1.1-.4-.4,0-.8-.1-1.2-.1-.7,0-1.3.1-1.9.3-.5.2-1,.5-1.3.9-.4.4-.6.8-.8,1.4s-.3,1.1-.3,1.7c0,.7,0,1.3.3,1.8s.5,1,.8,1.3c.4.4.8.6,1.3.8.5.2,1.1.3,1.8.3s.6,0,1,0,.6-.1.8-.2.5-.1.6-.2l.4,1.2c-.2.1-.4.2-.7.3-.3,0-.6.2-1,.2-.4,0-.8,0-1.2,0ZM5.5,7.4c.3,0,.6,0,.8-.2.2-.1.4-.3.4-.6,0-.3.1-.6.1-1,0-.3,0-.6-.1-.9,0-.2-.2-.4-.4-.5-.2-.1-.5-.2-.8-.2s-.6,0-.8.2c-.2.1-.4.3-.5.6-.1.2-.2.5-.2.8,0,.3,0,.6.1.9s.2.5.5.7.5.2.9.2Z"/>
    </g>
  </g>
</svg>