<?xml version="1.0" encoding="UTF-8"?>
<svg id="Layer_1" xmlns="http://www.w3.org/2000/svg" version="1.1" viewBox="0 0 416.3 210.5">
  <!-- Generator: Adobe Illustrator 29.1.0, SVG Export Plug-In . SVG Version: 2.1.0 Build 142)  -->
  <defs>
    <style>
      .st0 {
        fill: #010101;
      }
    </style>
  </defs>
  <g id="Layer_11" data-name="Layer_1">
    <g>
      <rect class="st0" x="40.6" y="118.1" width="208" height="32.2" transform="translate(-51.8 115.8) rotate(-37.5)"/>
      <rect class="st0" x="128.7" y="101" width="208" height="32.2" transform="translate(.1 234.5) rotate(-53.5)"/>
      <rect class="st0" x="200.1" y="90.4" width="208" height="32.2" transform="translate(110.6 364.2) rotate(-72.4)"/>
      <rect class="st0" x="248.4" y="89" width="208" height="32.2" transform="translate(195.2 437.6) rotate(-81.3)"/>
      <rect class="st0" x="384.1" y="2.3" width="32.2" height="208"/>
      <circle class="st0" cx="15.9" cy="194.1" r="15.9"/>
    </g>
    <g>
      <rect class="st0" x="40.6" y="118.1" width="208" height="32.2" transform="translate(-51.8 115.8) rotate(-37.5)"/>
      <rect class="st0" x="128.7" y="101" width="208" height="32.2" transform="translate(.1 234.5) rotate(-53.5)"/>
      <rect class="st0" x="200.1" y="90.4" width="208" height="32.2" transform="translate(110.6 364.2) rotate(-72.4)"/>
      <rect class="st0" x="248.4" y="89" width="208" height="32.2" transform="translate(195.2 437.6) rotate(-81.3)"/>
      <rect class="st0" x="384.1" y="2.3" width="32.2" height="208"/>
      <circle class="st0" cx="15.9" cy="194.1" r="15.9"/>
    </g>
  </g>
</svg>